<svg xmlns="http://www.w3.org/2000/svg" viewBox="0 0 500 500"><path d="M34.889 67.926c-1.458.366-14.151 2.859-14.151 2.859l-.069-2.435 12.768-7.019c-1.535-6.777-1.875-8.756-2.06-14.715l-.017-9.018-4.679.026c.018.731-.129 1.457-.429 2.125-.418-.667-.401-1.322-.397-2.101-.794 0-1.561.198-2.352.329.024.836-.095 1.488-.437 2.156-.347-.635-.352-1.136-.402-1.971l-5.735 1.323c-.008.857.04 1.345-.392 2.119-.373-.631-.41-1.257-.41-1.962L1.793 42.793c-1.957.397-1.572.561-1.74 1.544.013-.86-.036-2.334-.026-3.249 0-.52.116-.751.595-.976 7.89-4.004 16.208-7.251 23.891-11.472-.101-.701-.568-.221-.737-.493-.311-2.068-.344-4.905-.118-6.453.04-.224.102-.456.299-.455 1.586.008 1.912-.042 3.26-.013.198.004.294.208.331.427a28.31 28.31 0 0 1 .074 4.847l3.736-3.088c-.013-2.249-.028-5.838.075-7.6C31.705 9.732 33.285.469 35.291.024c2.004.443 3.585 9.706 3.858 15.786.103 1.762.087 5.351.074 7.6l3.736 3.088c-.116-1.359-.087-3.466.074-4.849.037-.218.134-.423.331-.427 1.349-.029 1.673.021 3.26.013.198 0 .259.233.299.456.225 1.548.194 4.384-.118 6.452-.169.274-.635-.208-.736.495 7.681 4.22 16.001 7.468 23.892 11.471.476.225.594.456.593.978.011.914-.04 2.388-.026 3.248-.168-.983.217-1.147-1.738-1.543L54.453 39.64c.001.705-.037 1.332-.41 1.963-.431-.775-.384-1.263-.392-2.119l-5.735-1.323c-.049.833-.054 1.336-.401 1.971-.341-.669-.46-1.322-.437-2.156-.791-.132-1.561-.331-2.353-.331.004.781.021 1.434-.397 2.101-.3-.667-.446-1.392-.429-2.123l-4.679-.026-.016 9.017c-.185 5.96-.527 7.938-2.061 14.716l12.769 7.018-.069 2.435-14.153-2.858c-.097.414-.089 1.302-.401 1.29-.312.013-.304-.876-.402-1.29z" fill="black"/></svg>