<svg xmlns="http://www.w3.org/2000/svg" viewBox="-4.26 -4.14 87.84 91.56"><path d="M39.156 80.404c-1.458.366-14.151 2.859-14.151 2.859l-.069-2.434 12.769-7.019c-1.535-6.779-1.876-8.758-2.061-14.716l-.022-15.412-4.679.026a4.9 4.9 0 0 1-.429 2.125c-.418-.667-.401-1.322-.397-2.101-.794 0-1.561.198-2.352.329.024.836-.095 1.488-.437 2.156-.347-.635-.352-1.136-.402-1.971l-5.735 1.323c-.008.857.04 1.345-.392 2.119-.373-.631-.41-1.257-.41-1.962L6.055 48.877c-1.786.992-4.702 3.064-6.013 4.015-.312-1.197 3.79-5.921 4.842-6.697 7.89-4.004 16.208-7.251 23.891-11.472-.101-.701-.568-.221-.737-.493-.311-2.068-.344-4.905-.118-6.453.04-.224.102-.456.299-.455 1.586.008 1.912-.042 3.26-.013.198.004.294.208.331.427a28.3 28.3 0 0 1 .083 4.839l3.735-3.088.069-13.676C35.968 9.73 37.55.467 39.554.024c2.004.443 3.586 9.706 3.858 15.785.103 1.762.095 11.43.082 13.678l3.735 3.086a28 28 0 0 1 .075-4.847c.037-.218.124-.415.321-.419 1.349-.029 1.673.021 3.26.013.198 0 .259.233.299.456.225 1.548.194 4.384-.118 6.452-.169.274-.635-.208-.736.495 7.681 4.22 16.001 7.468 23.892 11.471 1.226.61 5.36 5.79 5.331 6.812-1.818-1.045-4.568-3.299-6.503-4.129l-14.335-3.153c.001.705-.037 1.332-.41 1.963-.431-.775-.384-1.263-.392-2.119l-5.735-1.323c-.049.833-.054 1.336-.401 1.971-.341-.669-.46-1.322-.437-2.156-.791-.132-1.561-.331-2.353-.331.004.781.021 1.434-.397 2.101a4.9 4.9 0 0 1-.429-2.123l-4.679-.026-.011 15.412c-.185 5.958-.527 7.938-2.061 14.715l12.769 7.018-.069 2.437-14.151-2.86c-.098.415-.09 1.303-.402 1.292-.312.012-.304-.876-.402-1.291z" fill="black"/></svg>