<svg xmlns="http://www.w3.org/2000/svg" viewBox="0 0 500 500"><path d="m 32.529,48.297 9.466,-0.384 C 41.957,46.705 41.877,45.583 41.357,45.379 L 32.729,44.318 c -0.171,0.039 0.467,-4.770 1.102,-7.068 0.302,-1.092 0.624,-2.364 0.914,-3.624 0.194,-0.845 0.447,-2.245 1.227,-2.293 l 21.325,-2.424 1.775,0.206 c -0.165,-2.018 -0.034,-4.383 -1.794,-4.523 L 35.400,23.942 35.189,18.157 c -0.172,-1.993 -0.488,-3.164 -0.953,-3.403 l -1.219,-0.439 -0.055,-0.257 c 0,0 5.143,0.347 6.198,-0.023 0.088,-0.031 0.079,-0.231 0,-0.281 -0.363,-0.227 -6.243,0.030 -6.243,0.030 0,0 -0.356,-1.317 -0.700,-1.707 -0.263,0.374 -0.700,1.707 -0.700,1.707 0,0 -5.889,-0.280 -6.440,-0.030 -0.135,0.061 -0.084,0.239 0,0.281 0.787,0.400 6.390,-0.024 6.395,0.023 l -0.055,0.257 -1.219,0.439 c -0.464,0.240 -0.781,1.410 -0.953,3.403 L 29.036,23.942 7.158,24.591 c -1.761,0.140 -1.630,2.505 -1.794,4.523 l 1.775,-0.206 21.325,2.424 c 0.780,0.048 1.033,1.448 1.227,2.293 0.290,1.261 0.612,2.533 0.914,3.624 0.636,2.298 1.273,7.107 1.102,7.068 l -8.628,1.061 c -0.520,0.204 -0.600,1.325 -0.638,2.533 l 9.466,0.384 0.307,3.297 z" fill="black"/></svg>